<svg xmlns="http://www.w3.org/2000/svg" xmlns:xlink="http://www.w3.org/1999/xlink" version="1.1" width="348.753pt" height="99.1913pt" viewBox="0 0 348.753 99.1913">
<defs>
<clipPath id="clip_1">
<path transform="matrix(1,0,0,-1,0,99.1913)" d="M0 99.191H348.753V0H0Z"/>
</clipPath>
</defs>
<g id="layer_1" data-name="Layer">
</g>
<g id="layer_1" data-name="Layer">
<g clip-path="url(#clip_1)">
<path transform="matrix(1,0,0,-1,105.0429,37.5598)" d="M0 0H-21.11V13.59H-19.01C-10.99 13.59 0 13.59 0 2.1ZM154.34 35.54C153.91 35.54 153.47 35.46 153.02 35.32L134.91 29.31C133.93 28.97 133.34 28.18 133.34 27.17V0H25.85V2.1C25.85 12.04 21.07 21.13 12.4 27.69 4.1 33.96-7.34 37.56-19.01 37.56H-42.39C-44.05 37.56-45.08 36.53-45.08 34.87V0H-47.18C-71.17 0-92.68-12.63-104.7-33.78-105.3-34.78-105.1-35.82-104.2-36.61L-90.3-48.92C-89.59-49.54-88.84-49.87-88.08-49.87-86.79-49.87-85.55-48.91-84.74-47.3-77.6-32.91-63.21-23.98-47.18-23.98H154.62C156.28-23.98 157.311-22.94 157.311-21.28V32.24C157.311 34.21 156.12 35.54 154.34 35.54" fill="#128381"/>
<path transform="matrix(1,0,0,-1,348.7529,5.3199999)" d="M0 0V-53.52C0-55.18-1.03-56.22-2.69-56.22H-49.07L-49.5-57.75C-52.09-66.95-56.71-75.39-63.25-82.86-63.77-83.45-64.41-83.77-65.11-83.77-65.81-83.77-66.53-83.44-67.12-82.84L-80.27-69.69C-81.729-68.24-80.93-66.77-80.3-66.01-74.17-58.33-70.92-49.18-70.92-39.53V-5.07C-70.92-4.06-70.34-3.27-69.36-2.93L-51.25 3.08C-50.8 3.22-50.35 3.3-49.93 3.3-48.15 3.3-46.95 1.97-46.95 0V-32.24H-23.97V-5.07C-23.97-4.06-23.39-3.27-22.4-2.93L-4.29 3.08C-3.84 3.22-3.4 3.3-2.979 3.3-1.19 3.3 0 1.97 0 0" fill="#128381"/>
<path transform="matrix(1,0,0,-1,338.332,86.0544)" d="M0 0C0-7.258-5.878-13.137-13.137-13.137-20.395-13.137-26.273-7.258-26.273 0-26.273 7.249-20.395 13.127-13.137 13.127-5.878 13.127 0 7.249 0 0" fill="#128381"/>
<path transform="matrix(1,0,0,-1,213.8974,86.0544)" d="M0 0C0-7.258-5.879-13.137-13.137-13.137-20.395-13.137-26.273-7.258-26.273 0-26.273 7.249-20.395 13.127-13.137 13.127-5.879 13.127 0 7.249 0 0" fill="#128381"/>
<path transform="matrix(1,0,0,-1,186.245,86.0544)" d="M0 0C0-7.258-5.878-13.137-13.137-13.137-20.395-13.137-26.273-7.258-26.273 0-26.273 7.249-20.395 13.127-13.137 13.127-5.878 13.127 0 7.249 0 0" fill="#128381"/>
</g>
</g>
</svg>
