<?xml version="1.0" encoding="utf-8" ?>
<svg baseProfile="full" height="126" version="1.1" width="113" xmlns="http://www.w3.org/2000/svg" xmlns:ev="http://www.w3.org/2001/xml-events" xmlns:xlink="http://www.w3.org/1999/xlink"><defs /><polygon fill="white" points="25,0 24,1 24,2 25,3 25,4 25,5 25,6 26,7 26,8 26,9 26,10 27,11 27,12 27,13 27,14 28,15 28,16 28,17 28,18 29,19 29,20 29,21 29,22 30,23 29,24 28,24 27,24 26,24 25,25 24,26 24,27 24,28 23,29 22,29 21,29 20,29 19,28 18,28 17,28 16,28 15,27 14,27 13,27 12,27 11,26 10,26 9,26 8,26 7,25 6,25 5,25 4,24 3,24 2,24 1,24 0,25 0,26 0,27 0,28 0,29 0,30 0,31 0,32 0,33 0,34 0,35 0,36 0,37 0,38 0,39 0,40 0,41 0,42 0,43 0,44 0,45 0,46 0,47 0,48 0,49 0,50 0,51 0,52 0,53 0,54 0,55 0,56 0,57 0,58 0,59 0,60 0,61 0,62 0,63 0,64 0,65 0,66 0,67 0,68 0,69 0,70 0,71 0,72 0,73 0,74 0,75 0,76 0,77 1,77 2,77 3,77 4,77 5,76 6,76 7,76 8,76 9,75 10,75 11,75 12,75 13,74 14,74 15,74 16,74 17,73 18,73 19,73 20,72 21,72 22,72 23,72 24,73 24,74 24,75 25,76 26,77 27,77 28,77 29,77 30,78 30,79 29,80 29,81 29,82 28,83 28,84 28,85 28,86 27,87 27,88 27,89 27,90 26,91 26,92 26,93 26,94 25,95 25,96 25,97 25,98 24,99 24,100 25,101 26,102 27,102 28,102 29,102 30,102 31,102 32,102 33,102 34,102 35,102 36,102 37,102 38,102 39,102 40,102 41,102 42,102 43,102 44,102 45,102 46,102 47,102 48,102 49,102 50,102 51,102 52,102 53,102 54,103 54,104 54,105 54,106 53,107 52,108 52,109 51,110 50,111 49,112 48,113 47,114 46,115 45,116 45,117 44,118 43,119 42,120 41,121 40,121 39,121 38,121 37,121 36,121 35,121 34,121 33,121 32,121 31,121 30,121 29,121 28,121 27,121 26,121 25,121 24,121 23,121 22,121 21,121 20,121 19,121 18,121 17,121 16,121 15,121 14,122 14,123 14,124 15,125 16,125 17,125 18,125 19,125 20,125 21,125 22,125 23,125 24,125 25,125 26,125 27,125 28,125 29,125 30,125 31,125 32,125 33,125 34,125 35,125 36,125 37,125 38,125 39,125 40,125 41,125 42,125 43,125 44,125 45,125 46,125 47,125 48,125 49,125 50,125 51,125 52,125 53,125 54,125 55,125 56,125 57,125 58,125 59,125 60,125 61,125 62,125 63,125 64,125 65,125 66,125 67,125 68,125 69,125 70,125 71,125 72,125 73,125 74,125 75,125 76,125 77,125 78,125 79,125 80,125 81,125 82,125 83,125 84,125 85,125 86,125 87,125 88,125 89,125 90,125 91,125 92,125 93,125 94,125 95,125 96,125 97,125 98,124 98,123 98,122 97,121 96,121 95,121 94,121 93,121 92,121 91,121 90,121 89,121 88,121 87,121 86,121 85,121 84,121 83,121 82,121 81,121 80,121 79,121 78,121 77,121 76,121 75,121 74,121 73,121 72,121 71,120 70,119 69,118 68,117 67,116 67,115 66,114 65,113 64,112 63,111 62,110 61,109 61,108 60,107 59,106 58,105 58,104 58,103 59,102 60,102 61,102 62,102 63,102 64,102 65,102 66,102 67,102 68,102 69,102 70,102 71,102 72,102 73,102 74,102 75,102 76,102 77,102 78,102 79,102 80,102 81,102 82,102 83,102 84,102 85,102 86,102 87,101 88,101 88,100 88,99 88,98 87,97 87,96 87,95 87,94 86,93 86,92 86,91 86,90 85,89 85,88 85,87 84,86 84,85 84,84 84,83 83,82 83,81 83,80 83,79 82,78 83,77 84,77 85,77 86,77 87,76 88,75 88,74 88,73 89,72 90,72 91,72 92,72 93,73 94,73 95,73 96,73 97,74 98,74 99,74 100,74 101,75 102,75 103,75 104,76 105,76 106,76 107,76 108,77 109,77 110,77 111,77 112,77 112,76 112,75 112,74 112,73 112,72 112,71 112,70 112,69 112,68 112,67 112,66 112,65 112,64 112,63 112,62 112,61 112,60 112,59 112,58 112,57 112,56 112,55 112,54 112,53 112,52 112,51 112,50 112,49 112,48 112,47 112,46 112,45 112,44 112,43 112,42 112,41 112,40 112,39 112,38 112,37 112,36 112,35 112,34 112,33 112,32 112,31 112,30 112,29 112,28 112,27 112,26 112,25 112,24 111,24 110,24 109,24 108,25 107,25 106,25 105,25 104,26 103,26 102,26 101,26 100,27 99,27 98,27 97,27 96,28 95,28 94,28 93,28 92,29 91,29 90,29 89,29 88,28 88,27 88,26 87,25 86,24 85,24 84,24 83,24 82,23 83,22 83,21 83,20 83,19 84,18 84,17 84,16 84,15 85,14 85,13 85,12 86,11 86,10 86,9 86,8 87,7 87,6 87,5 87,4 88,3 88,2 88,1 88,0 87,0 86,0 85,0 84,0 83,0 82,0 81,0 80,0 79,0 78,0 77,0 76,0 75,0 74,0 73,0 72,0 71,0 70,0 69,0 68,0 67,0 66,0 65,0 64,0 63,0 62,0 61,0 60,0 59,0 58,0 57,0 56,0 55,0 54,0 53,0 52,0 51,0 50,0 49,0 48,0 47,0 46,0 45,0 44,0 43,0 42,0 41,0 40,0 39,0 38,0 37,0 36,0 35,0 34,0 33,0 32,0 31,0 30,0 29,0 28,0 27,0 26,0" stroke="white" stroke-width="1" /></svg>