<svg xmlns="http://www.w3.org/2000/svg" width="1024" height="1024" viewBox="0 0 512 512">
  <defs>
    <clipPath id="laptop-screen-clip">
      <rect x="104" y="112" width="304" height="192" rx="12" ry="12"/>
    </clipPath>
  </defs>

  <!-- Laptop lid bezel -->
  <rect x="88" y="96" width="336" height="224" rx="16" ry="16" fill="#FFFFFF"/>
  <!-- Screen -->
  <rect x="104" y="112" width="304" height="192" rx="12" ry="12" fill="#0E5554"/>
  <!-- Accent wedge -->
  <g clip-path="url(#laptop-screen-clip)">
    <circle cx="376" cy="112" r="120" fill="#35C0B8"/>
  </g>
  <!-- Screen text lines -->
  <rect x="132" y="148" width="108" height="8" rx="4" fill="#FFFFFF" opacity="0.9"/>
  <rect x="132" y="168" width="152" height="8" rx="4" fill="#FFFFFF" opacity="0.9"/>

  <!-- Base -->
  <path d="M64 352 H448 a16 16 0 0 1 16 16 v16 a16 16 0 0 1 -16 16 H64 a16 16 0 0 1 -16 -16 v-16 a16 16 0 0 1 16 -16 z" fill="#FFFFFF"/>
  <!-- Touchpad -->
  <rect x="224" y="368" width="64" height="20" rx="4" ry="4" fill="#0E5554" opacity="0.9"/>
</svg>