<svg xmlns="http://www.w3.org/2000/svg" width="1024" height="1024" viewBox="0 0 512 512">
  <defs>
    <clipPath id="screen-clip">
      <rect x="64" y="96" width="352" height="208" rx="12" ry="12"/>
    </clipPath>
  </defs>

  <!-- Background is transparent by default -->

  <!-- TV bezel -->
  <rect x="48" y="80" width="384" height="240" rx="16" ry="16" fill="#FFFFFF"/>

  <!-- Screen -->
  <rect x="64" y="96" width="352" height="208" rx="12" ry="12" fill="#0E5554"/>

  <!-- Accent quarter circle (top-right) -->
  <g clip-path="url(#screen-clip)">
    <circle cx="416" cy="96" r="128" fill="#35C0B8"/>
  </g>

  <!-- Screen text lines -->
  <rect x="92" y="136" width="120" height="8" rx="4" fill="#FFFFFF" opacity="0.9"/>
  <rect x="92" y="156" width="160" height="8" rx="4" fill="#FFFFFF" opacity="0.9"/>

  <!-- Stand -->
  <rect x="224" y="320" width="32" height="36" fill="#FFFFFF"/>
  <rect x="176" y="356" width="128" height="20" rx="6" ry="6" fill="#FFFFFF"/>

  <!-- Remote body -->
  <rect x="416" y="248" width="64" height="128" rx="14" ry="14" fill="#FFFFFF"/>
  <!-- Remote circular pad -->
  <circle cx="448" cy="286" r="18" fill="#0E5554"/>
  <!-- Remote small buttons -->
  <circle cx="430" cy="326" r="6" fill="#0E5554"/>
  <circle cx="466" cy="326" r="6" fill="#0E5554"/>
  <circle cx="430" cy="350" r="6" fill="#0E5554"/>
  <circle cx="466" cy="350" r="6" fill="#0E5554"/>
</svg>